<svg xmlns="http://www.w3.org/2000/svg" xmlns:xlink="http://www.w3.org/1999/xlink" viewBox="0 0 1039 507.97"><defs><style>.cls-1,.cls-6{fill:none;}.cls-2{fill:#1a4c1a;}.cls-3{clip-path:url(#clip-path);}.cls-4{fill:#da2c1b;}.cls-5{fill:#90d242;}.cls-6{stroke:#39aa40;stroke-miterlimit:10;stroke-width:18px;}.cls-7{fill:#5faa40;}.cls-8{fill:#7bd230;}.cls-9{fill:#9c2a1b;}.cls-10{fill:#020202;}.cls-11{fill:#d6cdcc;}.cls-12{fill:#b1d842;}</style><clipPath id="clip-path"><path class="cls-1" d="M1039,206.37S806.41,412.75,519.5,412.75,0,206.37,0,206.37,232.59,0,519.5,0,1039,206.37,1039,206.37Z"/></clipPath></defs><title>Recurso 1</title><g id="Capa_2" data-name="Capa 2"><g id="Capa_1-2" data-name="Capa 1"><path class="cls-2" d="M1039,206.37S806.41,412.75,519.5,412.75,0,206.37,0,206.37,232.59,0,519.5,0,1039,206.37,1039,206.37Z"/><g class="cls-3"><ellipse class="cls-4" cx="311.75" cy="142.43" rx="59.83" ry="88.64"/><path class="cls-5" d="M799.7,263.18C799.7,371.38,668.94,508,508,508S216.8,371.38,216.8,263.18C216.8,176.94,347.29,107,508.25,107S799.7,176.94,799.7,263.18Z"/><ellipse class="cls-4" cx="311.75" cy="142.43" rx="59.83" ry="88.64"/><ellipse class="cls-4" cx="311.75" cy="142.43" rx="59.83" ry="88.64"/><ellipse class="cls-4" cx="311.75" cy="142.43" rx="59.83" ry="88.64"/><ellipse class="cls-4" cx="311.75" cy="142.43" rx="59.83" ry="88.64"/><ellipse class="cls-4" cx="311.75" cy="142.43" rx="59.83" ry="88.64"/><ellipse class="cls-4" cx="311.75" cy="142.43" rx="59.83" ry="88.64"/><path class="cls-6" d="M222.29,288.15c0,6,1.17,12,15.72,18S273.65,318,299.77,323a914.86,914.86,0,0,0,92,12.27c34.69,3,72.93,23.7,113.21,23.7s78.51-20.69,113.2-23.7a914.86,914.86,0,0,0,92-12.27c26.12-5,47.2-10.78,61.76-16.8s22.58-12.29,22.58-18.31"/><ellipse class="cls-4" cx="311.75" cy="142.43" rx="59.83" ry="88.64"/><ellipse class="cls-4" cx="311.75" cy="142.43" rx="59.83" ry="88.64"/><ellipse class="cls-4" cx="311.75" cy="142.43" rx="59.83" ry="88.64"/><path class="cls-7" d="M436.87,111.75q-9.8,1.32-19.3,3l19.27,25.06,2.61-11.29a19.85,19.85,0,0,0-.58-11Z"/><path class="cls-8" d="M436.9,142.7c0,49-47.37,88.37-96.33,88.37a88.64,88.64,0,1,1,0-177.28C389.53,53.79,436.9,93.75,436.9,142.7Z"/><path class="cls-7" d="M242.69,198.75c12.93,17.76,32.92,28.61,54.57,28.55l29.31-.07-46.05-61.51C265.5,175.79,252.75,186.87,242.69,198.75Z"/><ellipse class="cls-4" cx="311.75" cy="142.43" rx="59.83" ry="88.64"/><path class="cls-9" d="M311.75,223.39c-32.17,0-58.4-37.63-59.76-84.8q-.06,1.91-.06,3.84c0,49,26.78,88.64,59.82,88.64s59.83-39.68,59.83-88.64q0-1.94-.06-3.84C370.16,185.76,343.93,223.39,311.75,223.39Z"/><path class="cls-10" d="M338.65,142.7c0,24-12.37,44.85-20.24,55.71a7.88,7.88,0,0,1-12.76,0c-7.87-10.86-20.24-31.74-20.24-55.71S297.78,97.86,305.65,87a7.88,7.88,0,0,1,12.76,0C326.28,97.86,338.65,118.74,338.65,142.7Z"/><path class="cls-7" d="M585.65,113.57q9.75,1.56,19.22,3.46L585,141.61l-2.34-11.35a19.85,19.85,0,0,1,.85-10.95Z"/><path class="cls-8" d="M584.87,144.51c-1.2,49,45.19,89.5,94.13,90.7A88.64,88.64,0,1,0,683.34,58C634.4,56.78,586.07,95.57,584.87,144.51Z"/><path class="cls-7" d="M777.64,205.29c-13.36,17.44-33.6,27.8-55.25,27.21l-29.3-.79,47.54-60.36C755.4,181.78,767.88,193.17,777.64,205.29Z"/><ellipse class="cls-4" cx="709.98" cy="147.3" rx="88.64" ry="59.83" transform="translate(545.36 853.46) rotate(-88.6)"/><path class="cls-9" d="M708,228.23c32.16.79,59.31-36.18,61.82-83.31q0,1.92,0,3.84c-1.2,48.94-28.95,88-62,87.16S649,194.78,650.17,145.84c0-1.29.09-2.57.15-3.84C650.53,189.19,675.84,227.45,708,228.23Z"/><path class="cls-10" d="M683.09,146.92c-.59,24,11.26,45.13,18.87,56.18a7.87,7.87,0,0,0,12.75.31c8.14-10.66,21-31.23,21.6-55.19S725,103.09,717.43,92a7.87,7.87,0,0,0-12.74-.31C696.55,102.39,683.67,123,683.09,146.92Z"/><circle class="cls-11" cx="297.21" cy="101.81" r="17.84"/><circle class="cls-11" cx="724.93" cy="112.2" r="17.84"/><ellipse class="cls-12" cx="388.11" cy="78.78" rx="7.47" ry="19.64" transform="matrix(0.58, -0.82, 0.82, 0.58, 99.4, 349.86)"/><ellipse class="cls-12" cx="414.61" cy="100.65" rx="5.87" ry="11.29" transform="translate(50.27 322.65) rotate(-45)"/><ellipse class="cls-12" cx="638.91" cy="80.3" rx="19.64" ry="7.47" transform="translate(57.33 356.74) rotate(-32.59)"/><ellipse class="cls-12" cx="611.4" cy="100.88" rx="11.29" ry="5.87" transform="translate(91.05 437.36) rotate(-42.26)"/><ellipse class="cls-6" cx="548.59" cy="281.02" rx="14.27" ry="5.21" transform="translate(89.99 692.85) rotate(-69.05)"/><ellipse class="cls-6" cx="467.86" cy="281.04" rx="5.21" ry="14.27" transform="translate(-69.61 186.17) rotate(-20.98)"/></g></g></g></svg>